{
	"patcher" : 	{
		"fileversion" : 1,
		"appversion" : 		{
			"major" : 7,
			"minor" : 3,
			"revision" : 4,
			"architecture" : "x64",
			"modernui" : 1
		}
,
		"rect" : [ 65.0, 127.0, 1157.0, 643.0 ],
		"bglocked" : 0,
		"openinpresentation" : 0,
		"default_fontsize" : 12.0,
		"default_fontface" : 0,
		"default_fontname" : "Gotham",
		"gridonopen" : 1,
		"gridsize" : [ 15.0, 15.0 ],
		"gridsnaponopen" : 1,
		"objectsnaponopen" : 1,
		"statusbarvisible" : 2,
		"toolbarvisible" : 1,
		"lefttoolbarpinned" : 0,
		"toptoolbarpinned" : 0,
		"righttoolbarpinned" : 0,
		"bottomtoolbarpinned" : 0,
		"toolbars_unpinned_last_save" : 0,
		"tallnewobj" : 0,
		"boxanimatetime" : 200,
		"enablehscroll" : 1,
		"enablevscroll" : 1,
		"devicewidth" : 0.0,
		"description" : "",
		"digest" : "",
		"tags" : "",
		"style" : "",
		"subpatcher_template" : "",
		"boxes" : [ 			{
				"box" : 				{
					"id" : "obj-54",
					"maxclass" : "newobj",
					"numinlets" : 1,
					"numoutlets" : 1,
					"outlettype" : [ "" ],
					"patching_rect" : [ 3200.0, 878.0, 19.0, 22.0 ],
					"saved_object_attributes" : 					{
						"filename" : "",
						"parameter_enable" : 0
					}
,
					"style" : "",
					"text" : "js"
				}

			}
, 			{
				"box" : 				{
					"id" : "obj-33",
					"maxclass" : "newobj",
					"numinlets" : 0,
					"numoutlets" : 0,
					"patching_rect" : [ 1160.0, 1426.0, 35.0, 22.0 ],
					"style" : "",
					"text" : "shell"
				}

			}
, 			{
				"box" : 				{
					"id" : "obj-187",
					"maxclass" : "message",
					"numinlets" : 2,
					"numoutlets" : 1,
					"outlettype" : [ "" ],
					"patching_rect" : [ 1850.666626, 1909.333374, 31.0, 22.0 ],
					"style" : "",
					"text" : "end"
				}

			}
, 			{
				"box" : 				{
					"id" : "obj-184",
					"linecount" : 3,
					"maxclass" : "comment",
					"numinlets" : 1,
					"numoutlets" : 0,
					"patching_rect" : [ 2826.833496, 493.562592, 156.0, 48.0 ],
					"style" : "",
					"text" : "I'm using random number generation and jit.movie to replay the footage"
				}

			}
, 			{
				"box" : 				{
					"id" : "obj-176",
					"linecount" : 5,
					"maxclass" : "comment",
					"numinlets" : 1,
					"numoutlets" : 0,
					"patching_rect" : [ 2281.583496, 358.4375, 250.0, 75.0 ],
					"style" : "",
					"text" : "However a bang also goes off when a new video is started\nTo prevent an overflow, I use this bang to temporarily toggle the gate closed (using the bang and a delay)"
				}

			}
, 			{
				"box" : 				{
					"color" : [ 0.254749, 0.632064, 0.682652, 1.0 ],
					"id" : "obj-172",
					"maxclass" : "newobj",
					"numinlets" : 2,
					"numoutlets" : 1,
					"outlettype" : [ "bang" ],
					"patching_rect" : [ 2118.86792, 351.4375, 50.0, 22.0 ],
					"style" : "",
					"text" : "del 500"
				}

			}
, 			{
				"box" : 				{
					"id" : "obj-170",
					"maxclass" : "button",
					"numinlets" : 1,
					"numoutlets" : 1,
					"outlettype" : [ "bang" ],
					"outlinecolor" : [ 0.541176, 0.815686, 0.913725, 1.0 ],
					"patching_rect" : [ 2206.450928, 401.604187, 24.0, 24.0 ],
					"style" : ""
				}

			}
, 			{
				"box" : 				{
					"id" : "obj-164",
					"maxclass" : "toggle",
					"numinlets" : 1,
					"numoutlets" : 1,
					"outlettype" : [ "int" ],
					"parameter_enable" : 0,
					"patching_rect" : [ 2206.450928, 334.829254, 24.0, 24.0 ],
					"style" : ""
				}

			}
, 			{
				"box" : 				{
					"id" : "obj-159",
					"maxclass" : "newobj",
					"numinlets" : 2,
					"numoutlets" : 1,
					"outlettype" : [ "" ],
					"patching_rect" : [ 2206.450928, 366.4375, 34.0, 22.0 ],
					"style" : "",
					"text" : "gate"
				}

			}
, 			{
				"box" : 				{
					"fontsize" : 12.0,
					"id" : "obj-105",
					"linecount" : 3,
					"maxclass" : "comment",
					"numinlets" : 1,
					"numoutlets" : 0,
					"patching_rect" : [ 2281.583496, 298.495911, 179.0, 48.0 ],
					"style" : "",
					"text" : "A bang goes off when the video is looped, this bang is used to trigger the next video selection"
				}

			}
, 			{
				"box" : 				{
					"id" : "obj-69",
					"linecount" : 2,
					"maxclass" : "comment",
					"numinlets" : 1,
					"numoutlets" : 0,
					"patching_rect" : [ 3187.0, 948.333374, 150.0, 34.0 ],
					"style" : "",
					"text" : "fileStamp_Time patch in github"
				}

			}
, 			{
				"box" : 				{
					"id" : "obj-4",
					"linecount" : 10,
					"maxclass" : "comment",
					"numinlets" : 1,
					"numoutlets" : 0,
					"patching_rect" : [ 1464.0, 596.0, 168.0, 144.0 ],
					"style" : "",
					"text" : "Next steps because I keep forgetting:\nPull date/time via max?\nDelete files (created by max) via max? Maybe overwrite with nothing?\nMotion detection to start recording? Or \"don't record if there has been no movement\""
				}

			}
, 			{
				"box" : 				{
					"id" : "obj-80",
					"maxclass" : "message",
					"numinlets" : 2,
					"numoutlets" : 1,
					"outlettype" : [ "" ],
					"patching_rect" : [ 744.933289, 98.166687, 29.5, 22.0 ],
					"style" : "",
					"text" : "1"
				}

			}
, 			{
				"box" : 				{
					"id" : "obj-70",
					"maxclass" : "message",
					"numinlets" : 2,
					"numoutlets" : 1,
					"outlettype" : [ "" ],
					"patching_rect" : [ 691.33728, 228.200012, 29.5, 22.0 ],
					"style" : "",
					"text" : "0"
				}

			}
, 			{
				"box" : 				{
					"id" : "obj-158",
					"maxclass" : "comment",
					"numinlets" : 1,
					"numoutlets" : 0,
					"patching_rect" : [ 3661.333252, 1210.666748, 150.0, 20.0 ],
					"style" : "",
					"text" : "<<<< How to find file path "
				}

			}
, 			{
				"box" : 				{
					"fontsize" : 16.0,
					"id" : "obj-155",
					"linecount" : 7,
					"maxclass" : "comment",
					"numinlets" : 1,
					"numoutlets" : 0,
					"patching_rect" : [ 2522.916748, 87.821014, 310.0, 135.0 ],
					"style" : "",
					"text" : "Instead of selecting random numbers for clip names, after I start naming files by date/time stamps, I can select them from an array? Older videos will be earlier on the array, later videos will be on the ends, which will help me establish system for playing more recent videos (on average).",
					"textcolor" : [ 0.784314, 0.145098, 0.023529, 1.0 ]
				}

			}
, 			{
				"box" : 				{
					"id" : "obj-119",
					"linecount" : 3,
					"maxclass" : "comment",
					"numinlets" : 1,
					"numoutlets" : 0,
					"patching_rect" : [ 2262.75, 120.321007, 150.0, 48.0 ],
					"style" : "",
					"text" : "Urn-jb generates random different from last random value"
				}

			}
, 			{
				"box" : 				{
					"id" : "obj-37",
					"maxclass" : "newobj",
					"numinlets" : 2,
					"numoutlets" : 1,
					"outlettype" : [ "int" ],
					"patching_rect" : [ 2189.450928, 144.321014, 51.0, 22.0 ],
					"style" : "",
					"text" : "urn-jb 4"
				}

			}
, 			{
				"box" : 				{
					"id" : "obj-28",
					"linecount" : 2,
					"maxclass" : "comment",
					"numinlets" : 1,
					"numoutlets" : 0,
					"patching_rect" : [ 1912.275879, 298.495911, 162.850342, 34.0 ],
					"style" : "",
					"text" : "loopreport bangs when video loops, signalling end of clip"
				}

			}
, 			{
				"box" : 				{
					"fontsize" : 18.0,
					"id" : "obj-178",
					"linecount" : 5,
					"maxclass" : "comment",
					"numinlets" : 1,
					"numoutlets" : 0,
					"patching_rect" : [ 256.333282, 210.700027, 331.0, 110.0 ],
					"style" : "",
					"text" : "Not recording in the abscence of motion???????????????????? To control amount of \"empty\" files\nFind a mo detection patch to edit and add as a \"gate\" to start recording",
					"textcolor" : [ 0.784314, 0.145098, 0.023529, 1.0 ]
				}

			}
, 			{
				"box" : 				{
					"fontface" : 0,
					"fontname" : "Gotham",
					"fontsize" : 12.0,
					"id" : "obj-157",
					"maxclass" : "jit.fpsgui",
					"numinlets" : 1,
					"numoutlets" : 2,
					"outlettype" : [ "", "" ],
					"patching_rect" : [ 2022.666748, 613.062622, 60.0, 36.0 ],
					"style" : ""
				}

			}
, 			{
				"box" : 				{
					"id" : "obj-153",
					"linecount" : 3,
					"maxclass" : "comment",
					"numinlets" : 1,
					"numoutlets" : 0,
					"patching_rect" : [ 3120.0, 990.666748, 150.0, 48.0 ],
					"style" : "",
					"text" : "Append to Umenu and delete? but how to delete from system?"
				}

			}
, 			{
				"box" : 				{
					"id" : "obj-148",
					"maxclass" : "number",
					"numinlets" : 1,
					"numoutlets" : 2,
					"outlettype" : [ "", "bang" ],
					"parameter_enable" : 0,
					"patching_rect" : [ 2262.75, 178.9543, 30.0, 22.0 ],
					"style" : ""
				}

			}
, 			{
				"box" : 				{
					"id" : "obj-84",
					"linecount" : 2,
					"maxclass" : "comment",
					"numinlets" : 1,
					"numoutlets" : 0,
					"patching_rect" : [ 3655.867676, 968.0, 150.0, 34.0 ],
					"style" : "",
					"text" : "TimingFiles_audio file for file saving"
				}

			}
, 			{
				"box" : 				{
					"id" : "obj-78",
					"linecount" : 2,
					"maxclass" : "comment",
					"numinlets" : 1,
					"numoutlets" : 0,
					"patching_rect" : [ 3648.0, 1017.333374, 150.0, 34.0 ],
					"style" : "",
					"text" : "jit.movie can jump to a specific frame"
				}

			}
, 			{
				"box" : 				{
					"id" : "obj-65",
					"linecount" : 2,
					"maxclass" : "comment",
					"numinlets" : 1,
					"numoutlets" : 0,
					"patching_rect" : [ 3272.0, 1033.333374, 150.0, 34.0 ],
					"style" : "",
					"text" : "Create time/date stamps for file names?"
				}

			}
, 			{
				"box" : 				{
					"id" : "obj-35",
					"linecount" : 2,
					"maxclass" : "comment",
					"numinlets" : 1,
					"numoutlets" : 0,
					"patching_rect" : [ 3272.0, 990.666748, 154.0, 34.0 ],
					"style" : "",
					"text" : "Looping / LOOP REPORT jit.movie"
				}

			}
, 			{
				"box" : 				{
					"id" : "obj-147",
					"maxclass" : "button",
					"numinlets" : 1,
					"numoutlets" : 1,
					"outlettype" : [ "bang" ],
					"patching_rect" : [ 3621.534424, 1221.999878, 24.0, 24.0 ],
					"style" : ""
				}

			}
, 			{
				"box" : 				{
					"id" : "obj-145",
					"linecount" : 2,
					"maxclass" : "message",
					"numinlets" : 2,
					"numoutlets" : 1,
					"outlettype" : [ "" ],
					"patching_rect" : [ 3278.86792, 1231.366577, 288.666687, 36.0 ],
					"style" : "",
					"text" : "C:/Users/Ari/Documents/Classwork_17-18/Spring_2018/Interactive_Installation/Project2/Main_Patch/"
				}

			}
, 			{
				"box" : 				{
					"id" : "obj-131",
					"maxclass" : "newobj",
					"numinlets" : 1,
					"numoutlets" : 2,
					"outlettype" : [ "", "bang" ],
					"patching_rect" : [ 3548.534424, 1188.333252, 92.0, 22.0 ],
					"style" : "",
					"text" : "opendialog fold"
				}

			}
, 			{
				"box" : 				{
					"id" : "obj-128",
					"maxclass" : "button",
					"numinlets" : 1,
					"numoutlets" : 1,
					"outlettype" : [ "bang" ],
					"patching_rect" : [ 3548.534424, 1152.666626, 24.0, 24.0 ],
					"style" : ""
				}

			}
, 			{
				"box" : 				{
					"id" : "obj-93",
					"linecount" : 2,
					"maxclass" : "comment",
					"numinlets" : 1,
					"numoutlets" : 0,
					"patching_rect" : [ 2228.450928, 45.654404, 150.0, 34.0 ],
					"style" : "",
					"text" : "Randomly select one of the clip# videos to play"
				}

			}
, 			{
				"box" : 				{
					"id" : "obj-88",
					"maxclass" : "button",
					"numinlets" : 1,
					"numoutlets" : 1,
					"outlettype" : [ "bang" ],
					"outlinecolor" : [ 0.541176, 0.815686, 0.913725, 1.0 ],
					"patching_rect" : [ 2148.36792, 95.654327, 29.5, 29.5 ],
					"style" : ""
				}

			}
, 			{
				"box" : 				{
					"id" : "obj-59",
					"maxclass" : "message",
					"numinlets" : 2,
					"numoutlets" : 1,
					"outlettype" : [ "" ],
					"patching_rect" : [ 2148.36792, 178.9543, 29.5, 22.0 ],
					"style" : "",
					"text" : "clip"
				}

			}
, 			{
				"box" : 				{
					"id" : "obj-52",
					"maxclass" : "newobj",
					"numinlets" : 3,
					"numoutlets" : 2,
					"outlettype" : [ "", "" ],
					"patching_rect" : [ 2148.36792, 208.9543, 163.0, 22.0 ],
					"style" : "",
					"text" : "combine name number .mov"
				}

			}
, 			{
				"box" : 				{
					"id" : "obj-48",
					"linecount" : 5,
					"maxclass" : "comment",
					"numinlets" : 1,
					"numoutlets" : 0,
					"patching_rect" : [ 3278.86792, 1088.0, 150.0, 75.0 ],
					"style" : "",
					"text" : "Ideas:\nvideo manipulation,\nbackground subtraction,\nspeed & direction of replayed videonc"
				}

			}
, 			{
				"box" : 				{
					"id" : "obj-30",
					"maxclass" : "comment",
					"numinlets" : 1,
					"numoutlets" : 0,
					"patching_rect" : [ 2262.75, 95.654327, 129.0, 20.0 ],
					"style" : "",
					"text" : "Number of total videos"
				}

			}
, 			{
				"box" : 				{
					"id" : "obj-6",
					"maxclass" : "number",
					"numinlets" : 1,
					"numoutlets" : 2,
					"outlettype" : [ "", "bang" ],
					"parameter_enable" : 0,
					"patching_rect" : [ 2221.450928, 95.654327, 27.0, 22.0 ],
					"style" : ""
				}

			}
, 			{
				"box" : 				{
					"id" : "obj-154",
					"linecount" : 4,
					"maxclass" : "comment",
					"numinlets" : 1,
					"numoutlets" : 0,
					"patching_rect" : [ 469.333374, 70.666626, 119.0, 62.0 ],
					"style" : "",
					"text" : "Stop current recording, disable delay bang gate, disable metro toggle"
				}

			}
, 			{
				"box" : 				{
					"id" : "obj-152",
					"maxclass" : "number",
					"numinlets" : 1,
					"numoutlets" : 2,
					"outlettype" : [ "", "bang" ],
					"parameter_enable" : 0,
					"patching_rect" : [ 410.833313, 133.700027, 31.0, 22.0 ],
					"style" : ""
				}

			}
, 			{
				"box" : 				{
					"bgcolor" : [ 0.311041, 0.314599, 0.318357, 1.0 ],
					"id" : "obj-142",
					"maxclass" : "button",
					"numinlets" : 1,
					"numoutlets" : 1,
					"outlettype" : [ "bang" ],
					"outlinecolor" : [ 0.92549, 0.364706, 0.341176, 1.0 ],
					"patching_rect" : [ 410.833313, 70.666626, 49.500061, 49.500061 ],
					"style" : ""
				}

			}
, 			{
				"box" : 				{
					"fontface" : 1,
					"fontsize" : 14.0,
					"id" : "obj-140",
					"maxclass" : "comment",
					"numinlets" : 1,
					"numoutlets" : 0,
					"patching_rect" : [ 407.5, 31.166668, 175.0, 23.0 ],
					"style" : "",
					"text" : "STOP SYSTEM"
				}

			}
, 			{
				"box" : 				{
					"angle" : 270.0,
					"bgcolor" : [ 0.803922, 0.898039, 0.909804, 0.52 ],
					"id" : "obj-134",
					"maxclass" : "panel",
					"mode" : 0,
					"numinlets" : 1,
					"numoutlets" : 0,
					"patching_rect" : [ 398.333374, 21.741699, 193.333267, 167.878128 ],
					"proportion" : 0.39,
					"style" : ""
				}

			}
, 			{
				"box" : 				{
					"fontface" : 1,
					"fontsize" : 14.0,
					"id" : "obj-129",
					"maxclass" : "comment",
					"numinlets" : 1,
					"numoutlets" : 0,
					"patching_rect" : [ 1371.0, 266.333344, 184.333328, 23.0 ],
					"style" : "",
					"text" : "TESTING/RESET BLOCK",
					"textcolor" : [ 1.0, 1.0, 1.0, 1.0 ]
				}

			}
, 			{
				"box" : 				{
					"id" : "obj-125",
					"linecount" : 2,
					"maxclass" : "comment",
					"numinlets" : 1,
					"numoutlets" : 0,
					"patching_rect" : [ 1248.0, 846.416687, 154.0, 34.0 ],
					"style" : "",
					"text" : "May set maximum for files numbers"
				}

			}
, 			{
				"box" : 				{
					"id" : "obj-117",
					"maxclass" : "newobj",
					"numinlets" : 5,
					"numoutlets" : 4,
					"outlettype" : [ "int", "", "", "int" ],
					"patching_rect" : [ 1110.333374, 894.916687, 61.0, 22.0 ],
					"style" : "",
					"text" : "counter"
				}

			}
, 			{
				"box" : 				{
					"id" : "obj-82",
					"linecount" : 6,
					"maxclass" : "comment",
					"numinlets" : 1,
					"numoutlets" : 0,
					"patching_rect" : [ 850.799927, 25.166687, 100.0, 89.0 ],
					"style" : "",
					"text" : "Start recording, turn on metro toggle, turn on delay gate toggle, make random no."
				}

			}
, 			{
				"box" : 				{
					"fontface" : 1,
					"id" : "obj-71",
					"linecount" : 2,
					"maxclass" : "comment",
					"numinlets" : 1,
					"numoutlets" : 0,
					"patching_rect" : [ 1408.333252, 309.43335, 153.0, 34.0 ],
					"style" : "",
					"text" : "Reset counter and file number to 0",
					"textcolor" : [ 1.0, 1.0, 1.0, 1.0 ]
				}

			}
, 			{
				"box" : 				{
					"bgcolor" : [ 1.0, 1.0, 1.0, 1.0 ],
					"id" : "obj-66",
					"maxclass" : "button",
					"numinlets" : 1,
					"numoutlets" : 1,
					"outlettype" : [ "bang" ],
					"outlinecolor" : [ 0.394356, 0.149215, 0.067687, 1.0 ],
					"patching_rect" : [ 1357.166626, 312.600006, 42.666668, 42.666668 ],
					"style" : ""
				}

			}
, 			{
				"box" : 				{
					"fontsize" : 11.0,
					"id" : "obj-13",
					"linecount" : 3,
					"maxclass" : "comment",
					"numinlets" : 1,
					"numoutlets" : 0,
					"patching_rect" : [ 691.33728, 540.166626, 93.0, 44.0 ],
					"style" : "",
					"text" : "Gate to stop 2nd delayed bang (for testing)"
				}

			}
, 			{
				"box" : 				{
					"id" : "obj-5",
					"maxclass" : "toggle",
					"numinlets" : 1,
					"numoutlets" : 1,
					"outlettype" : [ "int" ],
					"parameter_enable" : 0,
					"patching_rect" : [ 650.0, 488.0, 24.0, 24.0 ],
					"style" : ""
				}

			}
, 			{
				"box" : 				{
					"id" : "obj-2",
					"maxclass" : "newobj",
					"numinlets" : 2,
					"numoutlets" : 1,
					"outlettype" : [ "" ],
					"patching_rect" : [ 650.0, 540.166626, 34.0, 22.0 ],
					"style" : "",
					"text" : "gate"
				}

			}
, 			{
				"box" : 				{
					"id" : "obj-67",
					"linecount" : 3,
					"maxclass" : "comment",
					"numinlets" : 1,
					"numoutlets" : 0,
					"patching_rect" : [ 636.333374, 224.53334, 52.166626, 48.0 ],
					"style" : "",
					"text" : "Disable metro toggle"
				}

			}
, 			{
				"box" : 				{
					"fontface" : 1,
					"fontsize" : 14.0,
					"id" : "obj-61",
					"linecount" : 2,
					"maxclass" : "comment",
					"numinlets" : 1,
					"numoutlets" : 0,
					"patching_rect" : [ 708.835327, 32.666668, 67.564575, 39.0 ],
					"style" : "",
					"text" : "START SYSTEM"
				}

			}
, 			{
				"box" : 				{
					"fontsize" : 11.0,
					"id" : "obj-56",
					"linecount" : 2,
					"maxclass" : "comment",
					"numinlets" : 1,
					"numoutlets" : 0,
					"patching_rect" : [ 701.333374, 459.666656, 92.666611, 32.0 ],
					"style" : "",
					"text" : "8 second delay b/t recordings"
				}

			}
, 			{
				"box" : 				{
					"id" : "obj-7",
					"maxclass" : "button",
					"numinlets" : 1,
					"numoutlets" : 1,
					"outlettype" : [ "bang" ],
					"outlinecolor" : [ 0.439216, 0.74902, 0.254902, 1.0 ],
					"patching_rect" : [ 720.133301, 619.791687, 24.0, 24.0 ],
					"style" : ""
				}

			}
, 			{
				"box" : 				{
					"fontsize" : 16.0,
					"id" : "obj-114",
					"linecount" : 3,
					"maxclass" : "comment",
					"numinlets" : 1,
					"numoutlets" : 0,
					"patching_rect" : [ 2917.666504, 131.562531, 170.0, 62.0 ],
					"style" : "",
					"text" : "B&W final display\n6 displays\n1 live? occassionally",
					"textcolor" : [ 0.784314, 0.145098, 0.023529, 1.0 ]
				}

			}
, 			{
				"box" : 				{
					"fontsize" : 16.0,
					"id" : "obj-111",
					"linecount" : 10,
					"maxclass" : "comment",
					"numinlets" : 1,
					"numoutlets" : 0,
					"patching_rect" : [ 1449.583374, 1024.833374, 212.0, 190.0 ],
					"style" : "",
					"text" : "Possibly --> make an array of the video clips (or video clip numbers)\nEach new clip would be appended to list, and there could be a function/algorithm for deleting them (favors deleting much older clips, but leaves some)"
				}

			}
, 			{
				"box" : 				{
					"id" : "obj-108",
					"maxclass" : "comment",
					"numinlets" : 1,
					"numoutlets" : 0,
					"patching_rect" : [ 423.0, 1222.666748, 112.0, 20.0 ],
					"style" : "",
					"text" : "Recording stopped"
				}

			}
, 			{
				"box" : 				{
					"bgcolor" : [ 0.019608, 0.254902, 0.035294, 1.0 ],
					"id" : "obj-104",
					"maxclass" : "button",
					"numinlets" : 1,
					"numoutlets" : 1,
					"outlettype" : [ "bang" ],
					"outlinecolor" : [ 0.439216, 0.74902, 0.254902, 1.0 ],
					"patching_rect" : [ 353.833344, 1171.666748, 44.999878, 44.999878 ],
					"style" : ""
				}

			}
, 			{
				"box" : 				{
					"id" : "obj-100",
					"maxclass" : "comment",
					"numinlets" : 1,
					"numoutlets" : 0,
					"patching_rect" : [ 301.333282, 1222.666748, 106.166718, 20.0 ],
					"style" : "",
					"text" : "Recording started"
				}

			}
, 			{
				"box" : 				{
					"bgcolor" : [ 0.341176, 0.027451, 0.023529, 1.0 ],
					"id" : "obj-96",
					"maxclass" : "button",
					"numinlets" : 1,
					"numoutlets" : 1,
					"outlettype" : [ "bang" ],
					"outlinecolor" : [ 0.784314, 0.145098, 0.023529, 1.0 ],
					"patching_rect" : [ 423.0, 1171.666748, 44.999878, 44.999878 ],
					"style" : ""
				}

			}
, 			{
				"box" : 				{
					"color" : [ 0.439216, 0.74902, 0.254902, 1.0 ],
					"id" : "obj-63",
					"maxclass" : "newobj",
					"numinlets" : 2,
					"numoutlets" : 1,
					"outlettype" : [ "bang" ],
					"patching_rect" : [ 684.299988, 494.666656, 69.0, 22.0 ],
					"style" : "",
					"text" : "delay 8000"
				}

			}
, 			{
				"box" : 				{
					"fontface" : 3,
					"fontsize" : 12.0,
					"id" : "obj-57",
					"linecount" : 4,
					"maxclass" : "comment",
					"numinlets" : 1,
					"numoutlets" : 0,
					"patching_rect" : [ 696.333313, 1167.666626, 174.0, 62.0 ],
					"style" : "",
					"text" : "Setting jit.record to realtime 1 solved the \"slow-motion\" bug I was having with recorded qt videos"
				}

			}
, 			{
				"box" : 				{
					"fontface" : 0,
					"fontname" : "Gotham",
					"fontsize" : 12.0,
					"id" : "obj-55",
					"maxclass" : "jit.fpsgui",
					"numinlets" : 1,
					"numoutlets" : 2,
					"outlettype" : [ "", "" ],
					"patching_rect" : [ 921.466675, 932.833374, 80.0, 36.0 ],
					"style" : ""
				}

			}
, 			{
				"box" : 				{
					"id" : "obj-51",
					"maxclass" : "button",
					"numinlets" : 1,
					"numoutlets" : 1,
					"outlettype" : [ "bang" ],
					"outlinecolor" : [ 0.541176, 0.815686, 0.913725, 1.0 ],
					"patching_rect" : [ 790.583313, 32.666668, 49.500061, 49.500061 ],
					"style" : ""
				}

			}
, 			{
				"box" : 				{
					"id" : "obj-31",
					"linecount" : 4,
					"maxclass" : "comment",
					"numinlets" : 1,
					"numoutlets" : 0,
					"patching_rect" : [ 40.5, 201.200027, 150.0, 62.0 ],
					"style" : "",
					"text" : "Red is errors/bugs/future code/problems/ideas\nWhite transparent cords are for testing / reseting"
				}

			}
, 			{
				"box" : 				{
					"fontface" : 2,
					"fontsize" : 16.0,
					"id" : "obj-25",
					"linecount" : 6,
					"maxclass" : "comment",
					"numinlets" : 1,
					"numoutlets" : 0,
					"patching_rect" : [ 1449.583374, 815.916687, 170.0, 117.0 ],
					"style" : "",
					"text" : "How can i make a better naming convention?\nTime/Date stamps?\nwhich can late be parsed for deletion",
					"textcolor" : [ 0.784314, 0.145098, 0.023529, 1.0 ]
				}

			}
, 			{
				"box" : 				{
					"fontface" : 2,
					"fontsize" : 16.0,
					"id" : "obj-20",
					"linecount" : 5,
					"maxclass" : "comment",
					"numinlets" : 1,
					"numoutlets" : 0,
					"patching_rect" : [ 1371.0, 107.366714, 170.0, 98.0 ],
					"style" : "",
					"text" : "If there is a recording for 4-20 s every 8 seconds, how can I control the amount of files created?",
					"textcolor" : [ 0.784314, 0.145098, 0.023529, 1.0 ]
				}

			}
, 			{
				"box" : 				{
					"fontface" : 2,
					"fontsize" : 16.0,
					"id" : "obj-17",
					"linecount" : 3,
					"maxclass" : "comment",
					"numinlets" : 1,
					"numoutlets" : 0,
					"patching_rect" : [ 1449.583374, 955.699951, 170.0, 62.0 ],
					"style" : "",
					"text" : "A lot of these sections can be made into seperate patches",
					"textcolor" : [ 0.784314, 0.145098, 0.023529, 1.0 ]
				}

			}
, 			{
				"box" : 				{
					"id" : "obj-3",
					"maxclass" : "button",
					"numinlets" : 1,
					"numoutlets" : 1,
					"outlettype" : [ "bang" ],
					"outlinecolor" : [ 0.45098, 0.513725, 0.521569, 1.0 ],
					"patching_rect" : [ 1091.666626, 1019.916687, 24.0, 24.0 ],
					"style" : ""
				}

			}
, 			{
				"box" : 				{
					"id" : "obj-222",
					"maxclass" : "number",
					"numinlets" : 1,
					"numoutlets" : 2,
					"outlettype" : [ "", "bang" ],
					"parameter_enable" : 0,
					"patching_rect" : [ 934.466675, 541.833313, 50.0, 22.0 ],
					"style" : ""
				}

			}
, 			{
				"box" : 				{
					"id" : "obj-220",
					"maxclass" : "newobj",
					"numinlets" : 1,
					"numoutlets" : 1,
					"outlettype" : [ "bang" ],
					"patching_rect" : [ 348.333344, 460.291656, 60.0, 22.0 ],
					"style" : "",
					"text" : "loadbang"
				}

			}
, 			{
				"box" : 				{
					"id" : "obj-204",
					"maxclass" : "newobj",
					"numinlets" : 2,
					"numoutlets" : 1,
					"outlettype" : [ "int" ],
					"patching_rect" : [ 842.0, 541.833313, 61.0, 22.0 ],
					"style" : "",
					"text" : "random 3"
				}

			}
, 			{
				"box" : 				{
					"fontface" : 1,
					"id" : "obj-202",
					"linecount" : 4,
					"maxclass" : "comment",
					"numinlets" : 1,
					"numoutlets" : 0,
					"patching_rect" : [ 873.466614, 470.666656, 164.0, 62.0 ],
					"style" : "",
					"text" : "This bang will be used to randomly select a webcam out of 3 (I only have one right now)"
				}

			}
, 			{
				"box" : 				{
					"id" : "obj-200",
					"maxclass" : "button",
					"numinlets" : 1,
					"numoutlets" : 1,
					"outlettype" : [ "bang" ],
					"outlinecolor" : [ 0.701961, 0.415686, 0.886275, 1.0 ],
					"patching_rect" : [ 842.0, 494.666656, 24.0, 24.0 ],
					"style" : ""
				}

			}
, 			{
				"box" : 				{
					"id" : "obj-194",
					"linecount" : 5,
					"maxclass" : "comment",
					"numinlets" : 1,
					"numoutlets" : 0,
					"patching_rect" : [ 2826.833496, 724.562622, 162.0, 75.0 ],
					"style" : "",
					"text" : "This is so the people in the room have an increased chance of seeing themselves while they're there"
				}

			}
, 			{
				"box" : 				{
					"id" : "obj-192",
					"linecount" : 6,
					"maxclass" : "comment",
					"numinlets" : 1,
					"numoutlets" : 0,
					"patching_rect" : [ 2826.833496, 616.562622, 150.0, 89.0 ],
					"style" : "",
					"text" : "In the final piece, I want recently captured footage to have a higher change of being shown than older footage (hour/ day ago, etc)"
				}

			}
, 			{
				"box" : 				{
					"bgcolor" : [ 0.0, 0.0, 0.0, 1.0 ],
					"bgcolor2" : [ 0.290196, 0.309804, 0.301961, 1.0 ],
					"bgfillcolor_angle" : 270.0,
					"bgfillcolor_autogradient" : 0.0,
					"bgfillcolor_color" : [ 0.290196, 0.309804, 0.301961, 1.0 ],
					"bgfillcolor_color1" : [ 0.0, 0.0, 0.0, 1.0 ],
					"bgfillcolor_color2" : [ 0.290196, 0.309804, 0.301961, 1.0 ],
					"bgfillcolor_proportion" : 0.39,
					"bgfillcolor_type" : "gradient",
					"gradient" : 1,
					"id" : "obj-190",
					"maxclass" : "message",
					"numinlets" : 2,
					"numoutlets" : 1,
					"outlettype" : [ "" ],
					"patching_rect" : [ 803.333313, 394.291656, 29.5, 22.0 ],
					"style" : "",
					"text" : "0"
				}

			}
, 			{
				"box" : 				{
					"id" : "obj-188",
					"linecount" : 3,
					"maxclass" : "comment",
					"numinlets" : 1,
					"numoutlets" : 0,
					"patching_rect" : [ 1171.333374, 175.866699, 156.0, 48.0 ],
					"style" : "",
					"text" : "The counter is meant to signal the start and stop of each individual recording"
				}

			}
, 			{
				"box" : 				{
					"id" : "obj-186",
					"linecount" : 4,
					"maxclass" : "comment",
					"numinlets" : 1,
					"numoutlets" : 0,
					"patching_rect" : [ 1171.333374, 107.366714, 156.0, 62.0 ],
					"style" : "",
					"text" : "Here, a counter is created between 4-20, and is banged every second by a metro"
				}

			}
, 			{
				"box" : 				{
					"fontface" : 0,
					"id" : "obj-181",
					"linecount" : 9,
					"maxclass" : "comment",
					"numinlets" : 1,
					"numoutlets" : 0,
					"patching_rect" : [ 859.600037, 280.0, 278.0, 131.0 ],
					"style" : "",
					"text" : "Bang when Counter hits Max (orange)\n\n1. Stops current recording (red)\n2. Sends bang to change current camera (purple\n3. Resets counter to 0 (black)\n4. Bangs new random max (grey)\n5. Sends 0 to metro to stop counting (blue)\n6. Sends delayed bang to re-toggle metro & start new recording (green)"
				}

			}
, 			{
				"box" : 				{
					"id" : "obj-177",
					"maxclass" : "button",
					"numinlets" : 1,
					"numoutlets" : 1,
					"outlettype" : [ "bang" ],
					"outlinecolor" : [ 0.952941, 0.564706, 0.098039, 1.0 ],
					"patching_rect" : [ 803.333313, 331.600006, 24.0, 24.0 ],
					"style" : ""
				}

			}
, 			{
				"box" : 				{
					"id" : "obj-175",
					"maxclass" : "comment",
					"numinlets" : 1,
					"numoutlets" : 0,
					"patching_rect" : [ 944.533447, 229.200012, 133.199997, 20.0 ],
					"style" : "",
					"text" : "Counter Max"
				}

			}
, 			{
				"box" : 				{
					"id" : "obj-171",
					"maxclass" : "number",
					"numinlets" : 1,
					"numoutlets" : 2,
					"outlettype" : [ "", "bang" ],
					"parameter_enable" : 0,
					"patching_rect" : [ 882.799927, 228.200012, 50.0, 22.0 ],
					"style" : ""
				}

			}
, 			{
				"box" : 				{
					"id" : "obj-169",
					"maxclass" : "button",
					"numinlets" : 1,
					"numoutlets" : 1,
					"outlettype" : [ "bang" ],
					"patching_rect" : [ 744.933289, 217.53334, 24.0, 24.0 ],
					"style" : ""
				}

			}
, 			{
				"box" : 				{
					"id" : "obj-167",
					"maxclass" : "comment",
					"numinlets" : 1,
					"numoutlets" : 0,
					"patching_rect" : [ 628.333374, 339.600006, 88.333313, 20.0 ],
					"style" : "",
					"text" : "Current count"
				}

			}
, 			{
				"box" : 				{
					"id" : "obj-165",
					"maxclass" : "number",
					"numinlets" : 1,
					"numoutlets" : 2,
					"outlettype" : [ "", "bang" ],
					"parameter_enable" : 0,
					"patching_rect" : [ 658.5, 312.600006, 30.0, 22.0 ],
					"style" : "",
					"tricolor" : [ 0.952941, 0.564706, 0.098039, 1.0 ]
				}

			}
, 			{
				"box" : 				{
					"color" : [ 0.952941, 0.564706, 0.098039, 1.0 ],
					"id" : "obj-163",
					"maxclass" : "newobj",
					"numinlets" : 5,
					"numoutlets" : 4,
					"outlettype" : [ "int", "", "", "int" ],
					"patching_rect" : [ 775.333313, 280.0, 61.0, 22.0 ],
					"style" : "",
					"text" : "counter"
				}

			}
, 			{
				"box" : 				{
					"id" : "obj-162",
					"maxclass" : "comment",
					"numinlets" : 1,
					"numoutlets" : 0,
					"patching_rect" : [ 933.133423, 195.333344, 110.0, 20.0 ],
					"style" : "",
					"text" : "Atleast 4 seconds"
				}

			}
, 			{
				"box" : 				{
					"id" : "obj-160",
					"maxclass" : "comment",
					"numinlets" : 1,
					"numoutlets" : 0,
					"patching_rect" : [ 961.06665, 163.666687, 100.0, 20.0 ],
					"style" : "",
					"text" : "16 second span"
				}

			}
, 			{
				"box" : 				{
					"id" : "obj-150",
					"maxclass" : "newobj",
					"numinlets" : 2,
					"numoutlets" : 1,
					"outlettype" : [ "int" ],
					"patching_rect" : [ 882.799927, 195.333344, 29.5, 22.0 ],
					"style" : "",
					"text" : "+ 4"
				}

			}
, 			{
				"box" : 				{
					"fontface" : 1,
					"fontsize" : 14.0,
					"id" : "obj-149",
					"linecount" : 2,
					"maxclass" : "comment",
					"numinlets" : 1,
					"numoutlets" : 0,
					"patching_rect" : [ 972.666626, 32.666668, 150.0, 39.0 ],
					"style" : "",
					"text" : "RANDOMIZING THE RECORDING"
				}

			}
, 			{
				"box" : 				{
					"id" : "obj-144",
					"maxclass" : "message",
					"numinlets" : 2,
					"numoutlets" : 1,
					"outlettype" : [ "" ],
					"patching_rect" : [ 3533.999756, 195.895966, 31.0, 22.0 ],
					"style" : "",
					"text" : "end"
				}

			}
, 			{
				"box" : 				{
					"id" : "obj-137",
					"maxclass" : "newobj",
					"numinlets" : 2,
					"numoutlets" : 1,
					"outlettype" : [ "bang" ],
					"patching_rect" : [ 2542.583252, 358.4375, 58.0, 22.0 ],
					"style" : "",
					"text" : "metro 30"
				}

			}
, 			{
				"box" : 				{
					"color" : [ 0.254749, 0.632064, 0.682652, 1.0 ],
					"id" : "obj-138",
					"maxclass" : "newobj",
					"numinlets" : 1,
					"numoutlets" : 2,
					"outlettype" : [ "jit_matrix", "" ],
					"patching_rect" : [ 2542.583252, 414.4375, 101.0, 22.0 ],
					"style" : "",
					"text" : "jit.movie 320 240"
				}

			}
, 			{
				"box" : 				{
					"id" : "obj-139",
					"maxclass" : "toggle",
					"numinlets" : 1,
					"numoutlets" : 1,
					"outlettype" : [ "int" ],
					"parameter_enable" : 0,
					"patching_rect" : [ 2542.583252, 323.729156, 24.0, 24.0 ],
					"style" : ""
				}

			}
, 			{
				"box" : 				{
					"id" : "obj-132",
					"maxclass" : "message",
					"numinlets" : 2,
					"numoutlets" : 1,
					"outlettype" : [ "" ],
					"patching_rect" : [ 2148.36792, 242.787628, 51.0, 22.0 ],
					"style" : "",
					"text" : "read $1"
				}

			}
, 			{
				"box" : 				{
					"id" : "obj-130",
					"maxclass" : "newobj",
					"numinlets" : 2,
					"numoutlets" : 1,
					"outlettype" : [ "bang" ],
					"patching_rect" : [ 2078.25, 242.495941, 58.0, 22.0 ],
					"style" : "",
					"text" : "metro 30"
				}

			}
, 			{
				"box" : 				{
					"color" : [ 0.254749, 0.632064, 0.682652, 1.0 ],
					"id" : "obj-127",
					"maxclass" : "newobj",
					"numinlets" : 1,
					"numoutlets" : 2,
					"outlettype" : [ "jit_matrix", "" ],
					"patching_rect" : [ 2078.25, 298.495911, 181.0, 22.0 ],
					"style" : "",
					"text" : "jit.movie 320 240 @loopreport 1"
				}

			}
, 			{
				"box" : 				{
					"id" : "obj-126",
					"maxclass" : "toggle",
					"numinlets" : 1,
					"numoutlets" : 1,
					"outlettype" : [ "int" ],
					"parameter_enable" : 0,
					"patching_rect" : [ 2078.25, 207.787643, 24.0, 24.0 ],
					"style" : ""
				}

			}
, 			{
				"box" : 				{
					"id" : "obj-124",
					"maxclass" : "jit.pwindow",
					"numinlets" : 1,
					"numoutlets" : 2,
					"outlettype" : [ "", "" ],
					"patching_rect" : [ 2490.583252, 460.604187, 270.117645, 199.5 ]
				}

			}
, 			{
				"box" : 				{
					"id" : "obj-123",
					"maxclass" : "jit.pwindow",
					"numinlets" : 1,
					"numoutlets" : 2,
					"outlettype" : [ "", "" ],
					"patching_rect" : [ 2103.666504, 460.604187, 270.117645, 199.5 ]
				}

			}
, 			{
				"box" : 				{
					"fontface" : 1,
					"fontsize" : 14.0,
					"id" : "obj-122",
					"linecount" : 3,
					"maxclass" : "comment",
					"numinlets" : 1,
					"numoutlets" : 0,
					"patching_rect" : [ 1982.666748, 460.604187, 100.0, 55.0 ],
					"style" : "",
					"text" : "DISPLAYING RECORDED FOOTAGE"
				}

			}
, 			{
				"box" : 				{
					"angle" : 270.0,
					"bgcolor" : [ 0.407843, 0.803922, 0.803922, 1.0 ],
					"id" : "obj-121",
					"maxclass" : "panel",
					"mode" : 0,
					"numinlets" : 1,
					"numoutlets" : 0,
					"patching_rect" : [ 1975.833496, 450.604187, 839.5, 484.458344 ],
					"proportion" : 0.39,
					"style" : ""
				}

			}
, 			{
				"box" : 				{
					"id" : "obj-120",
					"linecount" : 2,
					"maxclass" : "comment",
					"numinlets" : 1,
					"numoutlets" : 0,
					"patching_rect" : [ 2826.833496, 454.604187, 176.0, 34.0 ],
					"style" : "",
					"text" : "Here, the recorded files will be displayed on multiple windows"
				}

			}
, 			{
				"box" : 				{
					"id" : "obj-118",
					"maxclass" : "newobj",
					"numinlets" : 2,
					"numoutlets" : 1,
					"outlettype" : [ "int" ],
					"patching_rect" : [ 882.799927, 163.666687, 68.0, 22.0 ],
					"style" : "",
					"text" : "random 16"
				}

			}
, 			{
				"box" : 				{
					"id" : "obj-113",
					"maxclass" : "newobj",
					"numinlets" : 2,
					"numoutlets" : 1,
					"outlettype" : [ "bang" ],
					"patching_rect" : [ 744.933289, 170.666687, 71.0, 22.0 ],
					"style" : "",
					"text" : "metro 1000"
				}

			}
, 			{
				"box" : 				{
					"checkedcolor" : [ 0.541176, 0.815686, 0.913725, 1.0 ],
					"id" : "obj-112",
					"maxclass" : "toggle",
					"numinlets" : 1,
					"numoutlets" : 1,
					"outlettype" : [ "int" ],
					"parameter_enable" : 0,
					"patching_rect" : [ 744.933289, 132.700027, 24.0, 24.0 ],
					"style" : ""
				}

			}
, 			{
				"box" : 				{
					"id" : "obj-110",
					"linecount" : 4,
					"maxclass" : "comment",
					"numinlets" : 1,
					"numoutlets" : 0,
					"patching_rect" : [ 138.583313, 416.291656, 150.0, 62.0 ],
					"style" : "",
					"text" : "Here the cameras are found and selected, either manually or from the purple bang to the right"
				}

			}
, 			{
				"box" : 				{
					"id" : "obj-103",
					"linecount" : 2,
					"maxclass" : "comment",
					"numinlets" : 1,
					"numoutlets" : 0,
					"patching_rect" : [ 150.583313, 658.0, 141.0, 34.0 ],
					"style" : "",
					"text" : "And can be sent back to jit.grab"
				}

			}
, 			{
				"box" : 				{
					"id" : "obj-101",
					"maxclass" : "message",
					"numinlets" : 2,
					"numoutlets" : 1,
					"outlettype" : [ "" ],
					"patching_rect" : [ 326.333344, 658.0, 68.0, 22.0 ],
					"style" : "",
					"text" : "vdevice $1"
				}

			}
, 			{
				"box" : 				{
					"id" : "obj-99",
					"linecount" : 2,
					"maxclass" : "comment",
					"numinlets" : 1,
					"numoutlets" : 0,
					"patching_rect" : [ 188.958313, 622.291687, 103.25, 34.0 ],
					"style" : "",
					"text" : "Which is sent to an umenu"
				}

			}
, 			{
				"box" : 				{
					"id" : "obj-97",
					"maxclass" : "comment",
					"numinlets" : 1,
					"numoutlets" : 0,
					"patching_rect" : [ 162.333313, 540.166626, 133.0, 20.0 ],
					"style" : "",
					"text" : "jit.grab outputs vdevlist"
				}

			}
, 			{
				"box" : 				{
					"id" : "obj-94",
					"linecount" : 3,
					"maxclass" : "comment",
					"numinlets" : 1,
					"numoutlets" : 0,
					"patching_rect" : [ 463.933289, 460.291656, 121.0, 48.0 ],
					"style" : "",
					"text" : "Get devlist retrieves all video devices, with a loadbang"
				}

			}
, 			{
				"box" : 				{
					"fontface" : 1,
					"fontsize" : 14.0,
					"id" : "obj-92",
					"linecount" : 2,
					"maxclass" : "comment",
					"numinlets" : 1,
					"numoutlets" : 0,
					"patching_rect" : [ 304.333282, 416.291656, 150.0, 39.0 ],
					"style" : "",
					"text" : "FINDING/CHOOSING WEBCAM INPUT"
				}

			}
, 			{
				"box" : 				{
					"id" : "obj-90",
					"maxclass" : "newobj",
					"numinlets" : 1,
					"numoutlets" : 1,
					"outlettype" : [ "" ],
					"patching_rect" : [ 326.333344, 570.791687, 98.0, 22.0 ],
					"style" : "",
					"text" : "prepend append"
				}

			}
, 			{
				"box" : 				{
					"id" : "obj-87",
					"maxclass" : "newobj",
					"numinlets" : 2,
					"numoutlets" : 2,
					"outlettype" : [ "", "" ],
					"patching_rect" : [ 326.333344, 533.833374, 81.0, 22.0 ],
					"style" : "",
					"text" : "route vdevlist"
				}

			}
, 			{
				"box" : 				{
					"id" : "obj-86",
					"items" : [ "Integrated Webcam", ",", "Integrated Webcam", ",", "Integrated Webcam", ",", "Integrated Webcam", ",", "Integrated Webcam", ",", "Integrated Webcam", ",", "Integrated Webcam", ",", "Integrated Webcam", ",", "Integrated Webcam", ",", "Integrated Webcam", ",", "Integrated Webcam" ],
					"maxclass" : "umenu",
					"numinlets" : 1,
					"numoutlets" : 3,
					"outlettype" : [ "int", "", "" ],
					"parameter_enable" : 0,
					"patching_rect" : [ 326.333344, 622.291687, 100.0, 22.0 ],
					"style" : ""
				}

			}
, 			{
				"box" : 				{
					"id" : "obj-85",
					"maxclass" : "message",
					"numinlets" : 2,
					"numoutlets" : 1,
					"outlettype" : [ "" ],
					"patching_rect" : [ 348.333344, 488.0, 67.0, 22.0 ],
					"style" : "",
					"text" : "getvdevlist"
				}

			}
, 			{
				"box" : 				{
					"id" : "obj-83",
					"linecount" : 2,
					"maxclass" : "comment",
					"numinlets" : 1,
					"numoutlets" : 0,
					"patching_rect" : [ 1171.333374, 48.666687, 155.0, 34.0 ],
					"style" : "",
					"text" : "Length of Recording\nWhich camera is Recording"
				}

			}
, 			{
				"box" : 				{
					"fontface" : 1,
					"id" : "obj-81",
					"maxclass" : "comment",
					"numinlets" : 1,
					"numoutlets" : 0,
					"patching_rect" : [ 1171.333374, 25.166687, 152.333344, 20.0 ],
					"style" : "",
					"text" : "What is randomized?"
				}

			}
, 			{
				"box" : 				{
					"fontsize" : 10.0,
					"id" : "obj-77",
					"linecount" : 3,
					"maxclass" : "comment",
					"numinlets" : 1,
					"numoutlets" : 0,
					"patching_rect" : [ 1174.833374, 832.216675, 62.0, 41.0 ],
					"style" : "",
					"text" : "reset counter (for testing)"
				}

			}
, 			{
				"box" : 				{
					"id" : "obj-50",
					"linecount" : 4,
					"maxclass" : "comment",
					"numinlets" : 1,
					"numoutlets" : 0,
					"patching_rect" : [ 1197.333374, 630.0, 150.0, 62.0 ],
					"style" : "",
					"text" : "I can use this to set a limit on the amount of qt files saved at once (for each hour, day, etc)"
				}

			}
, 			{
				"box" : 				{
					"angle" : 270.0,
					"bgcolor" : [ 0.960784, 0.827451, 0.156863, 0.93 ],
					"id" : "obj-46",
					"maxclass" : "panel",
					"mode" : 0,
					"numinlets" : 1,
					"numoutlets" : 0,
					"patching_rect" : [ 1189.333374, 623.5, 166.0, 68.5 ],
					"proportion" : 0.39,
					"style" : ""
				}

			}
, 			{
				"box" : 				{
					"id" : "obj-42",
					"linecount" : 4,
					"maxclass" : "comment",
					"numinlets" : 1,
					"numoutlets" : 0,
					"patching_rect" : [ 1189.333374, 541.25, 167.0, 62.0 ],
					"style" : "",
					"text" : "(I discovered recording over something with the same name deletes the last file completely)"
				}

			}
, 			{
				"box" : 				{
					"id" : "obj-39",
					"maxclass" : "comment",
					"numinlets" : 1,
					"numoutlets" : 0,
					"patching_rect" : [ 694.333313, 681.833374, 135.0, 20.0 ],
					"style" : "",
					"text" : "toggle webcam metro"
				}

			}
, 			{
				"box" : 				{
					"id" : "obj-32",
					"linecount" : 4,
					"maxclass" : "comment",
					"numinlets" : 1,
					"numoutlets" : 0,
					"patching_rect" : [ 40.5, 131.666687, 156.0, 62.0 ],
					"style" : "",
					"text" : "These are the first steps in creating a more complex system to save & replay recorded footage"
				}

			}
, 			{
				"box" : 				{
					"id" : "obj-29",
					"maxclass" : "comment",
					"numinlets" : 1,
					"numoutlets" : 0,
					"patching_rect" : [ 708.833313, 1231.666626, 219.666687, 20.0 ],
					"style" : "",
					"text" : "print message when recording is done"
				}

			}
, 			{
				"box" : 				{
					"bgcolor" : [ 0.784314, 0.145098, 0.023529, 0.0 ],
					"fontsize" : 13.0,
					"id" : "obj-27",
					"linecount" : 3,
					"maxclass" : "comment",
					"numinlets" : 1,
					"numoutlets" : 0,
					"patching_rect" : [ 850.799927, 667.333374, 133.666748, 51.0 ],
					"style" : "",
					"text" : "not yet sure if I need open/close when switching webcams",
					"textcolor" : [ 0.784314, 0.145098, 0.023529, 1.0 ]
				}

			}
, 			{
				"box" : 				{
					"fontface" : 3,
					"fontsize" : 25.718942,
					"id" : "obj-22",
					"linecount" : 3,
					"maxclass" : "comment",
					"numinlets" : 1,
					"numoutlets" : 0,
					"patching_rect" : [ 40.5, 25.166687, 317.0, 95.0 ],
					"style" : "",
					"text" : "CAPTURING, RECORDING, AND DISPLAYING FOOTAGE"
				}

			}
, 			{
				"box" : 				{
					"id" : "obj-19",
					"linecount" : 2,
					"maxclass" : "comment",
					"numinlets" : 1,
					"numoutlets" : 0,
					"patching_rect" : [ 1014.583374, 1059.666626, 162.0, 34.0 ],
					"style" : "",
					"text" : "This feeds into (write $1 15. jpeg) to start recording"
				}

			}
, 			{
				"box" : 				{
					"fontface" : 1,
					"fontsize" : 14.0,
					"id" : "obj-15",
					"maxclass" : "comment",
					"numinlets" : 1,
					"numoutlets" : 0,
					"patching_rect" : [ 1047.583374, 801.25, 172.5, 23.0 ],
					"style" : "",
					"text" : "CREATING FILE NAMES"
				}

			}
, 			{
				"box" : 				{
					"fontface" : 1,
					"fontsize" : 14.0,
					"id" : "obj-8",
					"linecount" : 2,
					"maxclass" : "comment",
					"numinlets" : 1,
					"numoutlets" : 0,
					"patching_rect" : [ 799.333313, 867.916687, 78.0, 39.0 ],
					"style" : "",
					"text" : "LIVE FOOTAGE"
				}

			}
, 			{
				"box" : 				{
					"bgcolor" : [ 0.960784, 0.827451, 0.156863, 1.0 ],
					"bgcolor2" : [ 0.960784, 0.827451, 0.156863, 1.0 ],
					"bgfillcolor_angle" : 270.0,
					"bgfillcolor_autogradient" : 0.0,
					"bgfillcolor_color" : [ 0.764706, 0.592157, 0.101961, 1.0 ],
					"bgfillcolor_color1" : [ 0.960784, 0.827451, 0.156863, 1.0 ],
					"bgfillcolor_color2" : [ 0.290196, 0.309804, 0.301961, 1.0 ],
					"bgfillcolor_proportion" : 0.39,
					"bgfillcolor_type" : "color",
					"gradient" : 1,
					"id" : "obj-68",
					"maxclass" : "message",
					"numinlets" : 2,
					"numoutlets" : 1,
					"outlettype" : [ "" ],
					"patching_rect" : [ 679.0, 1110.666626, 115.0, 22.0 ],
					"style" : "",
					"text" : "write TEST 15. jpeg"
				}

			}
, 			{
				"box" : 				{
					"fontface" : 1,
					"fontsize" : 14.0,
					"id" : "obj-64",
					"maxclass" : "comment",
					"numinlets" : 1,
					"numoutlets" : 0,
					"patching_rect" : [ 1030.333252, 619.791687, 100.0, 23.0 ],
					"style" : "",
					"text" : "START/STOP"
				}

			}
, 			{
				"box" : 				{
					"id" : "obj-60",
					"maxclass" : "button",
					"numinlets" : 1,
					"numoutlets" : 1,
					"outlettype" : [ "bang" ],
					"outlinecolor" : [ 0.968627, 0.164706, 0.164706, 1.0 ],
					"patching_rect" : [ 1089.333252, 659.291748, 24.0, 24.0 ],
					"style" : ""
				}

			}
, 			{
				"box" : 				{
					"bgcolor" : [ 0.279348, 0.29304, 0.244776, 1.0 ],
					"blinkcolor" : [ 0.031373, 0.541176, 0.498039, 1.0 ],
					"id" : "obj-58",
					"maxclass" : "button",
					"numinlets" : 1,
					"numoutlets" : 1,
					"outlettype" : [ "bang" ],
					"outlinecolor" : [ 0.317647, 0.709804, 0.321569, 1.0 ],
					"patching_rect" : [ 1030.333252, 659.291748, 24.0, 24.0 ],
					"style" : ""
				}

			}
, 			{
				"box" : 				{
					"id" : "obj-53",
					"linecount" : 3,
					"maxclass" : "comment",
					"numinlets" : 1,
					"numoutlets" : 0,
					"patching_rect" : [ 1244.666748, 952.916687, 150.0, 48.0 ],
					"style" : "",
					"text" : "Using counter and combine, new file names are created"
				}

			}
, 			{
				"box" : 				{
					"id" : "obj-49",
					"linecount" : 2,
					"maxclass" : "comment",
					"numinlets" : 1,
					"numoutlets" : 0,
					"patching_rect" : [ 1244.666748, 898.916687, 150.0, 34.0 ],
					"style" : "",
					"text" : "Here is a system for naming the new qt files"
				}

			}
, 			{
				"box" : 				{
					"id" : "obj-45",
					"maxclass" : "newobj",
					"numinlets" : 1,
					"numoutlets" : 0,
					"patching_rect" : [ 1047.583374, 1019.916687, 34.0, 22.0 ],
					"style" : "",
					"text" : "print"
				}

			}
, 			{
				"box" : 				{
					"id" : "obj-44",
					"maxclass" : "newobj",
					"numinlets" : 2,
					"numoutlets" : 2,
					"outlettype" : [ "", "" ],
					"patching_rect" : [ 1078.333374, 978.916687, 133.0, 22.0 ],
					"style" : "",
					"text" : "combine name number"
				}

			}
, 			{
				"box" : 				{
					"id" : "obj-40",
					"maxclass" : "message",
					"numinlets" : 2,
					"numoutlets" : 1,
					"outlettype" : [ "" ],
					"patching_rect" : [ 1066.583374, 935.333374, 29.5, 22.0 ],
					"style" : "",
					"text" : "clip"
				}

			}
, 			{
				"box" : 				{
					"id" : "obj-38",
					"maxclass" : "number",
					"numinlets" : 1,
					"numoutlets" : 2,
					"outlettype" : [ "", "bang" ],
					"parameter_enable" : 0,
					"patching_rect" : [ 1110.333374, 932.833374, 50.0, 22.0 ],
					"style" : ""
				}

			}
, 			{
				"box" : 				{
					"bgcolor" : [ 0.52549, 0.062745, 0.003922, 1.0 ],
					"bgcolor2" : [ 0.290196, 0.309804, 0.301961, 1.0 ],
					"bgfillcolor_angle" : 270.0,
					"bgfillcolor_autogradient" : 0.0,
					"bgfillcolor_color" : [ 0.341176, 0.027451, 0.023529, 1.0 ],
					"bgfillcolor_color1" : [ 0.52549, 0.062745, 0.003922, 1.0 ],
					"bgfillcolor_color2" : [ 0.290196, 0.309804, 0.301961, 1.0 ],
					"bgfillcolor_proportion" : 0.39,
					"bgfillcolor_type" : "gradient",
					"gradient" : 1,
					"id" : "obj-36",
					"maxclass" : "message",
					"numinlets" : 2,
					"numoutlets" : 1,
					"outlettype" : [ "" ],
					"patching_rect" : [ 1141.833374, 852.416687, 29.5, 22.0 ],
					"style" : "",
					"text" : "-1"
				}

			}
, 			{
				"box" : 				{
					"id" : "obj-34",
					"maxclass" : "button",
					"numinlets" : 1,
					"numoutlets" : 1,
					"outlettype" : [ "bang" ],
					"outlinecolor" : [ 0.681193, 0.750541, 0.758255, 1.0 ],
					"patching_rect" : [ 1110.333374, 840.716675, 24.0, 24.0 ],
					"style" : ""
				}

			}
, 			{
				"box" : 				{
					"bgcolor" : [ 0.52549, 0.062745, 0.003922, 1.0 ],
					"bgcolor2" : [ 0.52549, 0.062745, 0.003922, 1.0 ],
					"bgfillcolor_angle" : 270.0,
					"bgfillcolor_autogradient" : 0.0,
					"bgfillcolor_color" : [ 0.341176, 0.027451, 0.023529, 1.0 ],
					"bgfillcolor_color1" : [ 0.52549, 0.062745, 0.003922, 1.0 ],
					"bgfillcolor_color2" : [ 0.290196, 0.309804, 0.301961, 1.0 ],
					"bgfillcolor_proportion" : 0.39,
					"bgfillcolor_type" : "color",
					"gradient" : 1,
					"id" : "obj-26",
					"maxclass" : "message",
					"numinlets" : 2,
					"numoutlets" : 1,
					"outlettype" : [ "" ],
					"patching_rect" : [ 828.333313, 1110.666626, 33.0, 22.0 ],
					"style" : "",
					"text" : "stop"
				}

			}
, 			{
				"box" : 				{
					"id" : "obj-24",
					"maxclass" : "newobj",
					"numinlets" : 1,
					"numoutlets" : 0,
					"patching_rect" : [ 672.833313, 1231.666626, 34.0, 22.0 ],
					"style" : "",
					"text" : "print"
				}

			}
, 			{
				"box" : 				{
					"bgcolor" : [ 0.043137, 0.364706, 0.094118, 1.0 ],
					"bgcolor2" : [ 0.043137, 0.364706, 0.094118, 1.0 ],
					"bgfillcolor_angle" : 270.0,
					"bgfillcolor_autogradient" : 0.0,
					"bgfillcolor_color" : [ 0.019608, 0.254902, 0.035294, 1.0 ],
					"bgfillcolor_color1" : [ 0.043137, 0.364706, 0.094118, 1.0 ],
					"bgfillcolor_color2" : [ 0.290196, 0.309804, 0.301961, 1.0 ],
					"bgfillcolor_proportion" : 0.39,
					"bgfillcolor_type" : "color",
					"gradient" : 1,
					"id" : "obj-23",
					"maxclass" : "message",
					"numinlets" : 2,
					"numoutlets" : 1,
					"outlettype" : [ "" ],
					"patching_rect" : [ 547.333313, 1110.666626, 99.0, 22.0 ],
					"style" : "",
					"text" : "write $1 15. jpeg"
				}

			}
, 			{
				"box" : 				{
					"id" : "obj-21",
					"maxclass" : "newobj",
					"numinlets" : 1,
					"numoutlets" : 2,
					"outlettype" : [ "jit_matrix", "" ],
					"patching_rect" : [ 520.833313, 1167.666626, 171.0, 22.0 ],
					"style" : "",
					"text" : "jit.record 320 240 @realtime 1"
				}

			}
, 			{
				"box" : 				{
					"id" : "obj-18",
					"maxclass" : "jit.pwindow",
					"numinlets" : 1,
					"numoutlets" : 2,
					"outlettype" : [ "", "" ],
					"patching_rect" : [ 575.333313, 867.916687, 218.666672, 161.5 ]
				}

			}
, 			{
				"box" : 				{
					"bgcolor" : [ 0.52549, 0.062745, 0.003922, 1.0 ],
					"bgcolor2" : [ 0.290196, 0.309804, 0.301961, 1.0 ],
					"bgfillcolor_angle" : 270.0,
					"bgfillcolor_autogradient" : 0.0,
					"bgfillcolor_color" : [ 0.290196, 0.309804, 0.301961, 1.0 ],
					"bgfillcolor_color1" : [ 0.52549, 0.062745, 0.003922, 1.0 ],
					"bgfillcolor_color2" : [ 0.290196, 0.309804, 0.301961, 1.0 ],
					"bgfillcolor_proportion" : 0.39,
					"bgfillcolor_type" : "gradient",
					"fontsize" : 12.0,
					"gradient" : 1,
					"id" : "obj-16",
					"maxclass" : "message",
					"numinlets" : 2,
					"numoutlets" : 1,
					"outlettype" : [ "" ],
					"patching_rect" : [ 921.466675, 727.791748, 39.0, 22.0 ],
					"style" : "",
					"text" : "close"
				}

			}
, 			{
				"box" : 				{
					"bgcolor" : [ 0.043137, 0.364706, 0.094118, 1.0 ],
					"bgcolor2" : [ 0.290196, 0.309804, 0.301961, 1.0 ],
					"bgfillcolor_angle" : 270.0,
					"bgfillcolor_autogradient" : 0.0,
					"bgfillcolor_color" : [ 0.043137, 0.364706, 0.094118, 1.0 ],
					"bgfillcolor_color1" : [ 0.043137, 0.364706, 0.094118, 1.0 ],
					"bgfillcolor_color2" : [ 0.290196, 0.309804, 0.301961, 1.0 ],
					"bgfillcolor_proportion" : 0.39,
					"bgfillcolor_type" : "gradient",
					"gradient" : 1,
					"id" : "obj-14",
					"maxclass" : "message",
					"numinlets" : 2,
					"numoutlets" : 1,
					"outlettype" : [ "" ],
					"patching_rect" : [ 873.466614, 727.791748, 37.0, 22.0 ],
					"style" : "",
					"text" : "open"
				}

			}
, 			{
				"box" : 				{
					"id" : "obj-12",
					"maxclass" : "toggle",
					"numinlets" : 1,
					"numoutlets" : 1,
					"outlettype" : [ "int" ],
					"parameter_enable" : 0,
					"patching_rect" : [ 660.0, 681.833374, 24.0, 24.0 ],
					"style" : ""
				}

			}
, 			{
				"box" : 				{
					"id" : "obj-10",
					"maxclass" : "newobj",
					"numinlets" : 1,
					"numoutlets" : 2,
					"outlettype" : [ "jit_matrix", "" ],
					"patching_rect" : [ 637.333313, 779.166687, 93.0, 22.0 ],
					"style" : "",
					"text" : "jit.grab 320 240"
				}

			}
, 			{
				"box" : 				{
					"id" : "obj-9",
					"maxclass" : "newobj",
					"numinlets" : 2,
					"numoutlets" : 1,
					"outlettype" : [ "bang" ],
					"patching_rect" : [ 660.0, 724.833374, 58.0, 22.0 ],
					"style" : "",
					"text" : "metro 30"
				}

			}
, 			{
				"box" : 				{
					"angle" : 270.0,
					"bgcolor" : [ 0.439216, 0.74902, 0.254902, 0.85 ],
					"bordercolor" : [ 0.803922, 0.898039, 0.909804, 0.07 ],
					"id" : "obj-47",
					"maxclass" : "panel",
					"mode" : 0,
					"numinlets" : 1,
					"numoutlets" : 0,
					"patching_rect" : [ 1030.333252, 794.583374, 208.000122, 255.333344 ],
					"proportion" : 0.39,
					"style" : ""
				}

			}
, 			{
				"box" : 				{
					"angle" : 270.0,
					"bgcolor" : [ 0.960784, 0.827451, 0.156863, 0.73 ],
					"id" : "obj-62",
					"maxclass" : "panel",
					"mode" : 0,
					"numinlets" : 1,
					"numoutlets" : 0,
					"patching_rect" : [ 1008.333252, 612.287537, 144.0, 79.712486 ],
					"proportion" : 0.39,
					"style" : ""
				}

			}
, 			{
				"box" : 				{
					"angle" : 270.0,
					"bgcolor" : [ 0.317647, 0.654902, 0.976471, 1.0 ],
					"id" : "obj-11",
					"maxclass" : "panel",
					"mode" : 0,
					"numinlets" : 1,
					"numoutlets" : 0,
					"patching_rect" : [ 568.333313, 857.666687, 309.0, 182.25 ],
					"proportion" : 0.39,
					"style" : ""
				}

			}
, 			{
				"box" : 				{
					"angle" : 270.0,
					"bgcolor" : [ 0.960784, 0.827451, 0.156863, 0.93 ],
					"id" : "obj-43",
					"maxclass" : "panel",
					"mode" : 0,
					"numinlets" : 1,
					"numoutlets" : 0,
					"patching_rect" : [ 1189.333374, 536.5, 166.0, 71.5 ],
					"proportion" : 0.39,
					"style" : ""
				}

			}
, 			{
				"box" : 				{
					"angle" : 270.0,
					"bgcolor" : [ 0.439216, 0.74902, 0.254902, 0.85 ],
					"bordercolor" : [ 0.803922, 0.898039, 0.909804, 0.07 ],
					"id" : "obj-73",
					"maxclass" : "panel",
					"mode" : 0,
					"numinlets" : 1,
					"numoutlets" : 0,
					"patching_rect" : [ 539.083313, 1102.666626, 117.5, 35.0 ],
					"proportion" : 0.39,
					"style" : ""
				}

			}
, 			{
				"box" : 				{
					"angle" : 270.0,
					"bgcolor" : [ 0.960784, 0.827451, 0.156863, 0.93 ],
					"id" : "obj-74",
					"maxclass" : "panel",
					"mode" : 0,
					"numinlets" : 1,
					"numoutlets" : 0,
					"patching_rect" : [ 675.0, 1102.666626, 126.0, 35.0 ],
					"proportion" : 0.39,
					"style" : ""
				}

			}
, 			{
				"box" : 				{
					"angle" : 270.0,
					"bgcolor" : [ 0.784314, 0.145098, 0.023529, 0.93 ],
					"id" : "obj-75",
					"maxclass" : "panel",
					"mode" : 0,
					"numinlets" : 1,
					"numoutlets" : 0,
					"patching_rect" : [ 822.333313, 1102.666626, 44.0, 35.0 ],
					"proportion" : 0.39,
					"style" : ""
				}

			}
, 			{
				"box" : 				{
					"angle" : 270.0,
					"bgcolor" : [ 0.756863, 0.619608, 1.0, 0.73 ],
					"id" : "obj-91",
					"maxclass" : "panel",
					"mode" : 0,
					"numinlets" : 1,
					"numoutlets" : 0,
					"patching_rect" : [ 297.333344, 411.291656, 163.0, 277.75 ],
					"proportion" : 0.39,
					"style" : ""
				}

			}
, 			{
				"box" : 				{
					"angle" : 270.0,
					"bgcolor" : [ 0.317647, 0.654902, 0.976471, 1.0 ],
					"id" : "obj-95",
					"maxclass" : "panel",
					"mode" : 0,
					"numinlets" : 1,
					"numoutlets" : 0,
					"patching_rect" : [ 650.0, 674.020874, 43.333313, 37.625 ],
					"proportion" : 0.39,
					"style" : ""
				}

			}
, 			{
				"box" : 				{
					"angle" : 270.0,
					"bgcolor" : [ 0.756863, 0.619608, 1.0, 0.79 ],
					"id" : "obj-203",
					"maxclass" : "panel",
					"mode" : 0,
					"numinlets" : 1,
					"numoutlets" : 0,
					"patching_rect" : [ 834.5, 470.666656, 202.966614, 106.0 ],
					"proportion" : 0.39,
					"style" : ""
				}

			}
, 			{
				"box" : 				{
					"angle" : 270.0,
					"bgcolor" : [ 0.803922, 0.898039, 0.909804, 0.52 ],
					"id" : "obj-79",
					"maxclass" : "panel",
					"mode" : 0,
					"numinlets" : 1,
					"numoutlets" : 0,
					"patching_rect" : [ 600.333313, 21.741699, 537.266724, 425.916626 ],
					"proportion" : 0.39,
					"style" : ""
				}

			}
, 			{
				"box" : 				{
					"angle" : 270.0,
					"bgcolor" : [ 0.0, 0.0, 0.0, 0.73 ],
					"id" : "obj-76",
					"maxclass" : "panel",
					"mode" : 0,
					"numinlets" : 1,
					"numoutlets" : 0,
					"patching_rect" : [ 1345.666748, 250.033371, 234.333221, 124.589561 ],
					"proportion" : 0.39,
					"style" : ""
				}

			}
 ],
		"lines" : [ 			{
				"patchline" : 				{
					"destination" : [ "obj-18", 0 ],
					"midpoints" : [ 646.833313, 830.166656, 584.833313, 830.166656 ],
					"order" : 0,
					"source" : [ "obj-10", 0 ]
				}

			}
, 			{
				"patchline" : 				{
					"destination" : [ "obj-21", 0 ],
					"midpoints" : [ 646.833313, 830.416656, 530.333313, 830.416656 ],
					"order" : 1,
					"source" : [ "obj-10", 0 ]
				}

			}
, 			{
				"patchline" : 				{
					"color" : [ 0.701961, 0.415686, 0.886275, 0.9 ],
					"destination" : [ "obj-87", 0 ],
					"midpoints" : [ 720.833313, 812.0, 554.0, 812.0, 554.0, 527.2, 335.833344, 527.2 ],
					"source" : [ "obj-10", 1 ]
				}

			}
, 			{
				"patchline" : 				{
					"color" : [ 0.701961, 0.415686, 0.886275, 1.0 ],
					"destination" : [ "obj-10", 0 ],
					"midpoints" : [ 335.833344, 763.666668, 601.0, 763.666668, 601.0, 764.0, 646.833313, 764.0 ],
					"source" : [ "obj-101", 0 ]
				}

			}
, 			{
				"patchline" : 				{
					"destination" : [ "obj-113", 0 ],
					"source" : [ "obj-112", 0 ]
				}

			}
, 			{
				"patchline" : 				{
					"destination" : [ "obj-169", 0 ],
					"source" : [ "obj-113", 0 ]
				}

			}
, 			{
				"patchline" : 				{
					"destination" : [ "obj-38", 0 ],
					"source" : [ "obj-117", 0 ]
				}

			}
, 			{
				"patchline" : 				{
					"destination" : [ "obj-150", 0 ],
					"source" : [ "obj-118", 0 ]
				}

			}
, 			{
				"patchline" : 				{
					"destination" : [ "obj-9", 0 ],
					"source" : [ "obj-12", 0 ]
				}

			}
, 			{
				"patchline" : 				{
					"destination" : [ "obj-130", 0 ],
					"source" : [ "obj-126", 0 ]
				}

			}
, 			{
				"patchline" : 				{
					"destination" : [ "obj-123", 0 ],
					"order" : 0,
					"source" : [ "obj-127", 0 ]
				}

			}
, 			{
				"patchline" : 				{
					"destination" : [ "obj-157", 0 ],
					"midpoints" : [ 2087.75, 599.562607, 2032.166748, 599.562607 ],
					"order" : 1,
					"source" : [ "obj-127", 0 ]
				}

			}
, 			{
				"patchline" : 				{
					"destination" : [ "obj-159", 1 ],
					"source" : [ "obj-127", 1 ]
				}

			}
, 			{
				"patchline" : 				{
					"destination" : [ "obj-131", 0 ],
					"source" : [ "obj-128", 0 ]
				}

			}
, 			{
				"patchline" : 				{
					"destination" : [ "obj-127", 0 ],
					"source" : [ "obj-130", 0 ]
				}

			}
, 			{
				"patchline" : 				{
					"destination" : [ "obj-145", 1 ],
					"source" : [ "obj-131", 0 ]
				}

			}
, 			{
				"patchline" : 				{
					"destination" : [ "obj-147", 0 ],
					"source" : [ "obj-131", 1 ]
				}

			}
, 			{
				"patchline" : 				{
					"destination" : [ "obj-127", 0 ],
					"source" : [ "obj-132", 0 ]
				}

			}
, 			{
				"patchline" : 				{
					"destination" : [ "obj-138", 0 ],
					"source" : [ "obj-137", 0 ]
				}

			}
, 			{
				"patchline" : 				{
					"destination" : [ "obj-124", 0 ],
					"source" : [ "obj-138", 0 ]
				}

			}
, 			{
				"patchline" : 				{
					"destination" : [ "obj-137", 0 ],
					"source" : [ "obj-139", 0 ]
				}

			}
, 			{
				"patchline" : 				{
					"destination" : [ "obj-10", 0 ],
					"midpoints" : [ 882.966614, 763.166687, 646.833313, 763.166687 ],
					"source" : [ "obj-14", 0 ]
				}

			}
, 			{
				"patchline" : 				{
					"destination" : [ "obj-152", 0 ],
					"source" : [ "obj-142", 0 ]
				}

			}
, 			{
				"patchline" : 				{
					"destination" : [ "obj-171", 0 ],
					"source" : [ "obj-150", 0 ]
				}

			}
, 			{
				"patchline" : 				{
					"color" : [ 1.0, 1.0, 1.0, 0.0 ],
					"destination" : [ "obj-112", 0 ],
					"midpoints" : [ 420.333313, 157.0, 730.0, 157.0, 730.0, 127.0, 754.433289, 127.0 ],
					"order" : 1,
					"source" : [ "obj-152", 0 ]
				}

			}
, 			{
				"patchline" : 				{
					"color" : [ 1.0, 1.0, 1.0, 0.0 ],
					"destination" : [ "obj-5", 0 ],
					"midpoints" : [ 420.333313, 381.0, 586.0, 381.0, 586.0, 453.333333, 659.5, 453.333333 ],
					"order" : 2,
					"source" : [ "obj-152", 0 ]
				}

			}
, 			{
				"patchline" : 				{
					"color" : [ 1.0, 1.0, 1.0, 0.0 ],
					"destination" : [ "obj-60", 0 ],
					"midpoints" : [ 420.333313, 397.0, 578.0, 397.0, 578.0, 460.0, 637.0, 460.0, 637.0, 604.0, 1015.0, 604.0, 1015.0, 655.0, 1098.833252, 655.0 ],
					"order" : 0,
					"source" : [ "obj-152", 0 ]
				}

			}
, 			{
				"patchline" : 				{
					"destination" : [ "obj-170", 0 ],
					"source" : [ "obj-159", 0 ]
				}

			}
, 			{
				"patchline" : 				{
					"destination" : [ "obj-10", 0 ],
					"midpoints" : [ 930.966675, 764.0, 646.833313, 764.0 ],
					"source" : [ "obj-16", 0 ]
				}

			}
, 			{
				"patchline" : 				{
					"color" : [ 0.952941, 0.564706, 0.098039, 0.9 ],
					"destination" : [ "obj-165", 0 ],
					"midpoints" : [ 784.833313, 306.800003, 668.0, 306.800003 ],
					"source" : [ "obj-163", 0 ]
				}

			}
, 			{
				"patchline" : 				{
					"color" : [ 0.952941, 0.564706, 0.098039, 0.9 ],
					"destination" : [ "obj-177", 0 ],
					"source" : [ "obj-163", 2 ]
				}

			}
, 			{
				"patchline" : 				{
					"destination" : [ "obj-159", 0 ],
					"source" : [ "obj-164", 0 ]
				}

			}
, 			{
				"patchline" : 				{
					"destination" : [ "obj-163", 0 ],
					"source" : [ "obj-169", 0 ]
				}

			}
, 			{
				"patchline" : 				{
					"destination" : [ "obj-164", 0 ],
					"midpoints" : [ 2215.950928, 426.562607, 2193.0, 426.562607, 2193.0, 330.562607, 2215.950928, 330.562607 ],
					"order" : 0,
					"source" : [ "obj-170", 0 ]
				}

			}
, 			{
				"patchline" : 				{
					"color" : [ 0.65098, 0.666667, 0.662745, 0.9 ],
					"destination" : [ "obj-172", 0 ],
					"midpoints" : [ 2215.950928, 426.562607, 2178.0, 426.562607, 2178.0, 336.562607, 2128.36792, 336.562607 ],
					"order" : 2,
					"source" : [ "obj-170", 0 ]
				}

			}
, 			{
				"patchline" : 				{
					"destination" : [ "obj-88", 0 ],
					"midpoints" : [ 2215.950928, 426.562607, 2250.0, 426.562607, 2250.0, 330.562607, 2271.0, 330.562607, 2271.0, 276.562607, 2140.0, 276.562607, 2140.0, 90.562607, 2157.86792, 90.562607 ],
					"order" : 1,
					"source" : [ "obj-170", 0 ]
				}

			}
, 			{
				"patchline" : 				{
					"destination" : [ "obj-163", 4 ],
					"midpoints" : [ 892.299927, 265.0, 826.833313, 265.0 ],
					"source" : [ "obj-171", 0 ]
				}

			}
, 			{
				"patchline" : 				{
					"color" : [ 0.65098, 0.666667, 0.662745, 0.9 ],
					"destination" : [ "obj-164", 0 ],
					"midpoints" : [ 2128.36792, 382.437515, 2176.659424, 382.437515, 2176.659424, 323.829269, 2215.950928, 323.829269 ],
					"source" : [ "obj-172", 0 ]
				}

			}
, 			{
				"patchline" : 				{
					"destination" : [ "obj-118", 0 ],
					"midpoints" : [ 812.833313, 365.600006, 852.56662, 365.600006, 852.56662, 152.666687, 892.299927, 152.666687 ],
					"order" : 1,
					"source" : [ "obj-177", 0 ]
				}

			}
, 			{
				"patchline" : 				{
					"color" : [ 0.0, 0.0, 0.0, 0.9 ],
					"destination" : [ "obj-190", 0 ],
					"order" : 3,
					"source" : [ "obj-177", 0 ]
				}

			}
, 			{
				"patchline" : 				{
					"color" : [ 0.701961, 0.415686, 0.886275, 0.9 ],
					"destination" : [ "obj-200", 0 ],
					"midpoints" : [ 812.833313, 376.0, 851.5, 376.0 ],
					"order" : 2,
					"source" : [ "obj-177", 0 ]
				}

			}
, 			{
				"patchline" : 				{
					"color" : [ 0.784314, 0.145098, 0.023529, 0.9 ],
					"destination" : [ "obj-60", 0 ],
					"midpoints" : [ 812.833313, 380.800006, 797.600014, 380.800006, 797.600014, 647.20001, 1098.833252, 647.20001 ],
					"order" : 0,
					"source" : [ "obj-177", 0 ]
				}

			}
, 			{
				"patchline" : 				{
					"color" : [ 0.439216, 0.74902, 0.254902, 0.9 ],
					"destination" : [ "obj-63", 0 ],
					"midpoints" : [ 812.833313, 379.0, 693.799988, 379.0 ],
					"order" : 5,
					"source" : [ "obj-177", 0 ]
				}

			}
, 			{
				"patchline" : 				{
					"color" : [ 0.541176, 0.815686, 0.913725, 0.9 ],
					"destination" : [ "obj-70", 0 ],
					"midpoints" : [ 812.833313, 358.0, 730.0, 358.0, 730.0, 214.0, 700.83728, 214.0 ],
					"order" : 4,
					"source" : [ "obj-177", 0 ]
				}

			}
, 			{
				"patchline" : 				{
					"color" : [ 0.317647, 0.654902, 0.976471, 0.9 ],
					"destination" : [ "obj-55", 0 ],
					"midpoints" : [ 584.833313, 1054.0, 896.0, 1054.0, 896.0, 922.0, 930.966675, 922.0 ],
					"source" : [ "obj-18", 0 ]
				}

			}
, 			{
				"patchline" : 				{
					"color" : [ 0.0, 0.0, 0.0, 0.9 ],
					"destination" : [ "obj-163", 3 ],
					"midpoints" : [ 812.833313, 428.0, 789.333313, 428.0, 789.333313, 314.0, 846.333313, 314.0, 846.333313, 266.0, 816.333313, 266.0 ],
					"source" : [ "obj-190", 0 ]
				}

			}
, 			{
				"patchline" : 				{
					"color" : [ 0.439216, 0.74902, 0.254902, 0.9 ],
					"destination" : [ "obj-112", 0 ],
					"midpoints" : [ 659.5, 565.0, 622.0, 565.0, 622.0, 127.0, 754.433289, 127.0 ],
					"order" : 0,
					"source" : [ "obj-2", 0 ]
				}

			}
, 			{
				"patchline" : 				{
					"color" : [ 0.439216, 0.74902, 0.254902, 0.9 ],
					"destination" : [ "obj-7", 0 ],
					"midpoints" : [ 659.5, 590.479156, 729.633301, 590.479156 ],
					"order" : 1,
					"source" : [ "obj-2", 0 ]
				}

			}
, 			{
				"patchline" : 				{
					"color" : [ 0.701961, 0.415686, 0.886275, 0.9 ],
					"destination" : [ "obj-204", 0 ],
					"source" : [ "obj-200", 0 ]
				}

			}
, 			{
				"patchline" : 				{
					"color" : [ 0.701961, 0.415686, 0.886275, 0.9 ],
					"destination" : [ "obj-222", 0 ],
					"midpoints" : [ 851.5, 573.666656, 920.0, 573.666656, 920.0, 537.666656, 943.966675, 537.666656 ],
					"order" : 0,
					"source" : [ "obj-204", 0 ]
				}

			}
, 			{
				"patchline" : 				{
					"color" : [ 0.701961, 0.415686, 0.886275, 0.9 ],
					"destination" : [ "obj-86", 0 ],
					"midpoints" : [ 851.5, 604.5625, 335.833344, 604.5625 ],
					"order" : 1,
					"source" : [ "obj-204", 0 ]
				}

			}
, 			{
				"patchline" : 				{
					"destination" : [ "obj-24", 0 ],
					"order" : 0,
					"source" : [ "obj-21", 1 ]
				}

			}
, 			{
				"patchline" : 				{
					"color" : [ 0.0, 0.0, 0.0, 0.9 ],
					"destination" : [ "obj-96", 0 ],
					"midpoints" : [ 682.333313, 1189.0, 691.0, 1189.0, 691.0, 1153.0, 432.5, 1153.0 ],
					"order" : 1,
					"source" : [ "obj-21", 1 ]
				}

			}
, 			{
				"patchline" : 				{
					"destination" : [ "obj-85", 0 ],
					"source" : [ "obj-220", 0 ]
				}

			}
, 			{
				"patchline" : 				{
					"color" : [ 0.0, 0.0, 0.0, 0.9 ],
					"destination" : [ "obj-104", 0 ],
					"midpoints" : [ 556.833313, 1153.0, 363.333344, 1153.0 ],
					"order" : 1,
					"source" : [ "obj-23", 0 ]
				}

			}
, 			{
				"patchline" : 				{
					"color" : [ 0.439216, 0.74902, 0.254902, 0.9 ],
					"destination" : [ "obj-21", 0 ],
					"midpoints" : [ 556.833313, 1146.166656, 530.333313, 1146.166656 ],
					"order" : 0,
					"source" : [ "obj-23", 0 ]
				}

			}
, 			{
				"patchline" : 				{
					"color" : [ 0.784314, 0.145098, 0.023529, 0.9 ],
					"destination" : [ "obj-21", 0 ],
					"midpoints" : [ 837.833313, 1146.166656, 530.333313, 1146.166656 ],
					"source" : [ "obj-26", 0 ]
				}

			}
, 			{
				"patchline" : 				{
					"destination" : [ "obj-117", 0 ],
					"order" : 0,
					"source" : [ "obj-34", 0 ]
				}

			}
, 			{
				"patchline" : 				{
					"destination" : [ "obj-40", 0 ],
					"order" : 1,
					"source" : [ "obj-34", 0 ]
				}

			}
, 			{
				"patchline" : 				{
					"destination" : [ "obj-117", 3 ],
					"source" : [ "obj-36", 0 ]
				}

			}
, 			{
				"patchline" : 				{
					"destination" : [ "obj-148", 0 ],
					"midpoints" : [ 2198.950928, 172.137634, 2272.25, 172.137634 ],
					"order" : 0,
					"source" : [ "obj-37", 0 ]
				}

			}
, 			{
				"patchline" : 				{
					"destination" : [ "obj-52", 1 ],
					"midpoints" : [ 2198.950928, 187.137634, 2229.86792, 187.137634 ],
					"order" : 1,
					"source" : [ "obj-37", 0 ]
				}

			}
, 			{
				"patchline" : 				{
					"destination" : [ "obj-59", 0 ],
					"order" : 2,
					"source" : [ "obj-37", 0 ]
				}

			}
, 			{
				"patchline" : 				{
					"destination" : [ "obj-44", 1 ],
					"source" : [ "obj-38", 0 ]
				}

			}
, 			{
				"patchline" : 				{
					"destination" : [ "obj-44", 0 ],
					"source" : [ "obj-40", 0 ]
				}

			}
, 			{
				"patchline" : 				{
					"color" : [ 0.0, 0.533333, 0.168627, 0.9 ],
					"destination" : [ "obj-23", 0 ],
					"midpoints" : [ 1087.833374, 1003.0, 901.0, 1003.0, 901.0, 1087.0, 556.833313, 1087.0 ],
					"order" : 2,
					"source" : [ "obj-44", 0 ]
				}

			}
, 			{
				"patchline" : 				{
					"destination" : [ "obj-3", 0 ],
					"order" : 0,
					"source" : [ "obj-44", 0 ]
				}

			}
, 			{
				"patchline" : 				{
					"destination" : [ "obj-45", 0 ],
					"order" : 1,
					"source" : [ "obj-44", 0 ]
				}

			}
, 			{
				"patchline" : 				{
					"destination" : [ "obj-2", 0 ],
					"midpoints" : [ 659.5, 540.937454, 659.5, 540.937454 ],
					"source" : [ "obj-5", 0 ]
				}

			}
, 			{
				"patchline" : 				{
					"destination" : [ "obj-118", 0 ],
					"midpoints" : [ 800.083313, 132.833344, 892.299927, 132.833344 ],
					"order" : 1,
					"source" : [ "obj-51", 0 ]
				}

			}
, 			{
				"patchline" : 				{
					"color" : [ 0.541176, 0.815686, 0.913725, 0.9 ],
					"destination" : [ "obj-58", 0 ],
					"midpoints" : [ 800.083313, 114.66667, 1132.000038, 114.66667, 1132.000038, 584.000017, 1132.000038, 606.666685, 998.6667, 606.666685, 998.6667, 654.666686 ],
					"order" : 0,
					"source" : [ "obj-51", 0 ]
				}

			}
, 			{
				"patchline" : 				{
					"color" : [ 0.541176, 0.815686, 0.913725, 0.9 ],
					"destination" : [ "obj-80", 0 ],
					"midpoints" : [ 800.083313, 89.666708, 754.433289, 89.666708 ],
					"order" : 2,
					"source" : [ "obj-51", 0 ]
				}

			}
, 			{
				"patchline" : 				{
					"destination" : [ "obj-132", 0 ],
					"source" : [ "obj-52", 0 ]
				}

			}
, 			{
				"patchline" : 				{
					"color" : [ 0.0, 0.533333, 0.168627, 0.9 ],
					"destination" : [ "obj-34", 0 ],
					"midpoints" : [ 1039.833252, 835.0, 1119.833374, 835.0 ],
					"source" : [ "obj-58", 0 ]
				}

			}
, 			{
				"patchline" : 				{
					"destination" : [ "obj-52", 0 ],
					"source" : [ "obj-59", 0 ]
				}

			}
, 			{
				"patchline" : 				{
					"destination" : [ "obj-37", 1 ],
					"source" : [ "obj-6", 0 ]
				}

			}
, 			{
				"patchline" : 				{
					"color" : [ 0.784314, 0.145098, 0.023529, 0.9 ],
					"destination" : [ "obj-26", 0 ],
					"midpoints" : [ 1098.833252, 778.0, 889.0, 778.0, 889.0, 1096.0, 837.833313, 1096.0 ],
					"source" : [ "obj-60", 0 ]
				}

			}
, 			{
				"patchline" : 				{
					"color" : [ 0.439216, 0.74902, 0.254902, 0.9 ],
					"destination" : [ "obj-2", 1 ],
					"midpoints" : [ 693.799988, 528.749985, 674.5, 528.749985 ],
					"source" : [ "obj-63", 0 ]
				}

			}
, 			{
				"patchline" : 				{
					"color" : [ 1.0, 1.0, 1.0, 0.0 ],
					"destination" : [ "obj-190", 0 ],
					"midpoints" : [ 1366.666626, 421.0, 844.0, 421.0, 844.0, 379.0, 812.833313, 379.0 ],
					"order" : 1,
					"source" : [ "obj-66", 0 ]
				}

			}
, 			{
				"patchline" : 				{
					"color" : [ 1.0, 1.0, 1.0, 0.0 ],
					"destination" : [ "obj-36", 0 ],
					"midpoints" : [ 1366.666626, 523.0, 1366.0, 523.0, 1366.0, 829.0, 1159.0, 829.0, 1159.0, 838.0, 1151.333374, 838.0 ],
					"order" : 0,
					"source" : [ "obj-66", 0 ]
				}

			}
, 			{
				"patchline" : 				{
					"destination" : [ "obj-21", 0 ],
					"source" : [ "obj-68", 0 ]
				}

			}
, 			{
				"patchline" : 				{
					"color" : [ 0.439216, 0.74902, 0.254902, 0.9 ],
					"destination" : [ "obj-58", 0 ],
					"midpoints" : [ 729.633301, 653.341718, 1039.833252, 653.341718 ],
					"source" : [ "obj-7", 0 ]
				}

			}
, 			{
				"patchline" : 				{
					"color" : [ 0.541176, 0.815686, 0.913725, 0.9 ],
					"destination" : [ "obj-112", 0 ],
					"midpoints" : [ 700.83728, 253.0, 730.0, 253.0, 730.0, 127.0, 754.433289, 127.0 ],
					"source" : [ "obj-70", 0 ]
				}

			}
, 			{
				"patchline" : 				{
					"destination" : [ "obj-112", 0 ],
					"order" : 0,
					"source" : [ "obj-80", 0 ]
				}

			}
, 			{
				"patchline" : 				{
					"color" : [ 1.0, 1.0, 1.0, 0.0 ],
					"destination" : [ "obj-5", 0 ],
					"midpoints" : [ 754.433289, 121.0, 730.0, 121.0, 730.0, 445.0, 659.5, 445.0 ],
					"order" : 1,
					"source" : [ "obj-80", 0 ]
				}

			}
, 			{
				"patchline" : 				{
					"color" : [ 0.0, 0.0, 0.0, 1.0 ],
					"destination" : [ "obj-10", 0 ],
					"midpoints" : [ 357.833344, 518.0, 601.0, 518.0, 601.0, 764.0, 646.833313, 764.0 ],
					"source" : [ "obj-85", 0 ]
				}

			}
, 			{
				"patchline" : 				{
					"color" : [ 0.701961, 0.415686, 0.886275, 0.9 ],
					"destination" : [ "obj-101", 0 ],
					"source" : [ "obj-86", 0 ]
				}

			}
, 			{
				"patchline" : 				{
					"color" : [ 0.701961, 0.415686, 0.886275, 0.9 ],
					"destination" : [ "obj-90", 0 ],
					"source" : [ "obj-87", 0 ]
				}

			}
, 			{
				"patchline" : 				{
					"destination" : [ "obj-37", 0 ],
					"midpoints" : [ 2157.86792, 135.487656, 2198.950928, 135.487656 ],
					"source" : [ "obj-88", 0 ]
				}

			}
, 			{
				"patchline" : 				{
					"destination" : [ "obj-10", 0 ],
					"midpoints" : [ 669.5, 763.291656, 646.833313, 763.291656 ],
					"source" : [ "obj-9", 0 ]
				}

			}
, 			{
				"patchline" : 				{
					"color" : [ 0.701961, 0.415686, 0.886275, 0.9 ],
					"destination" : [ "obj-86", 0 ],
					"source" : [ "obj-90", 0 ]
				}

			}
 ],
		"dependency_cache" : [ 			{
				"name" : "urn-jb.maxpat",
				"bootpath" : "C:/ProgramData/Max 7/examples/max-tricks/random_with_no_repeat",
				"patcherrelativepath" : "../../../../../../../../ProgramData/Max 7/examples/max-tricks/random_with_no_repeat",
				"type" : "JSON",
				"implicit" : 1
			}
 ],
		"autosave" : 0
	}

}
